#!OML:ASF X:\für Bonn\!DataBase\2005_08_10_Bjorn_Final\c3d\bjorn.ASF
:FULLY-SPECIFIED
:DEGREES
226
root 1.81786 4.70364 9.48723 -2041.41 -18.901 182.703
lowerback 43.9207 5.53183 12.2206
upperback 26.6295 0.193228 5.17312
thorax 10.5014 -3.8515 -1.44125
lowerneck 3.10399 -1.43234 5.83072
upperneck 14.6087 -1.68199 -10.8779
head 3.64668 -1.36758 -4.38139
rclavicle 2.31584e-014 -2.98177e-015
rhumerus -50.1421 -41.657 -64.8399
rradius 24.6783
rwrist -31.7094
rhand -12.0014 -10.8572
rfingers 7.12502
rthumb 14.0557 -40.3619
lclavicle 2.31584e-014 -2.98177e-015
lhumerus -33.5822 46.417 63.0467
lradius 10.4984
lwrist -31.742
lhand -22.2696 4.80578
lfingers 7.12502
lthumb 4.14846 754.745
rfemur -334.759 -63.7785 234.723
rtibia 149.798
rfoot -40.0322 50.5216
rtoes -10.1261
lfemur -65.3456 33.5881 11.485
ltibia 144.492
lfoot -23.7463 -26.764
ltoes -28.4779
227
root 1.78379 4.7257 9.53706 -2041.57 -18.7869 182.999
lowerback 43.7945 5.51017 12.3107
upperback 26.5791 0.235922 5.24371
thorax 10.4833 -3.80779 -1.41804
lowerneck 2.78519 -1.28456 5.21759
upperneck 14.7745 -1.46295 -11.2143
head 3.76785 -1.3275 -4.38787
rclavicle 3.10104e-014 -3.37934e-015
rhumerus -50.2069 -42.1476 -64.172
rradius 24.2555
rwrist -31.0109
rhand -12.1364 -10.951
rfingers 7.12502
rthumb 13.9256 -40.4647
lclavicle 3.10104e-014 -3.37934e-015
lhumerus -34.3535 48.014 62.0002
lradius 10.2194
lwrist -33.5304
lhand -22.464 4.93108
lfingers 7.12502
lthumb 3.96067 754.874
rfemur -337.137 -64.8953 238.387
rtibia 149.111
rfoot -38.3525 50.2695
rtoes -11.0521
lfemur -65.3184 33.1438 11.1783
ltibia 144.349
lfoot -23.3808 -26.5549
ltoes -28.152
228
root 1.7497 4.75047 9.58719 -2041.7 -18.6339 183.246
lowerback 43.6734 5.48747 12.4317
upperback 26.536 0.284515 5.26697
thorax 10.4772 -3.7513 -1.46383
lowerneck 2.38727 -1.13786 4.70101
upperneck 14.9819 -1.23791 -11.5479
head 3.91501 -1.28414 -4.41123
rclavicle -3.47873e-015 -5.56597e-014
rhumerus -50.3099 -42.7526 -63.497
rradius 23.828
rwrist -30.2365
rhand -12.2842 -10.9962
rfingers 7.12502
rthumb 13.7831 -40.5197
lclavicle -3.47873e-015 -5.56597e-014
lhumerus -33.7141 47.6493 62.8101
lradius 9.90691
lwrist -33.1075
lhand -22.9344 5.2874
lfingers 7.12502
lthumb 3.5064 755.238
rfemur -340.087 -66.0275 242.677
rtibia 148.381
rfoot -36.3795 50.075
rtoes -11.6568
lfemur -65.2139 32.757 10.9151
ltibia 144.183
lfoot -23.0763 -26.329
ltoes -27.8464
229
root 1.71523 4.77704 9.63804 -2041.84 -18.4782 183.489
lowerback 43.608 5.43112 12.6077
upperback 26.4713 0.323173 5.25875
thorax 10.4364 -3.68869 -1.56429
lowerneck 2.00584 -1.00125 4.24152
upperneck 15.1735 -1.02237 -11.863
head 4.0544 -1.2426 -4.43763
rclavicle 3.69243e-014 3.72721e-014
rhumerus -50.5352 -43.4709 -62.7019
rradius 23.3876
rwrist -29.3383
rhand -12.3757 -11.0236
rfingers 7.12502
rthumb 13.695 -40.553
lclavicle 3.69243e-014 3.72721e-014
lhumerus -33.1863 47.2163 63.5176
lradius 9.60847
lwrist -32.8053
lhand -23.4955 5.5865
lfingers 7.12502
lthumb 2.9646 755.546
rfemur -343.57 -67.1216 247.556
rtibia 147.607
rfoot -34.4129 49.7493
rtoes -12.2896
lfemur -65.0992 32.2934 10.643
ltibia 144.016
lfoot -22.667 -26.1482
ltoes -27.3393
230
root 1.68025 4.80494 9.69142 -2041.95 -18.3226 183.682
lowerback 43.5964 5.35992 12.7729
upperback 26.3782 0.35457 5.22041
thorax 10.3442 -3.62826 -1.68559
lowerneck 1.63982 -0.868058 3.72578
upperneck 15.3949 -0.814333 -12.0975
head 4.20198 -1.20761 -4.42935
rclavicle -2.62396e-014 -2.08724e-014
rhumerus -50.7961 -44.2042 -61.8516
rradius 22.94
rwrist -28.3786
rhand -12.5124 -11.0465
rfingers 7.12502
rthumb 13.5632 -40.5847
lclavicle -2.62396e-014 -2.08724e-014
lhumerus -32.7651 46.7942 64.16
lradius 9.29068
lwrist -32.6568
lhand -24.1529 5.80884
lfingers 7.12502
lthumb 2.32967 755.776
rfemur -348.378 -68.2676 253.856
rtibia 146.75
rfoot -31.9783 49.3333
rtoes -12.8253
lfemur -64.9652 31.7538 10.2894
ltibia 143.824
lfoot -22.2804 -25.8946
ltoes -26.8612
231
root 1.6451 4.83447 9.74492 -2042.01 -18.1771 183.848
lowerback 43.574 5.28646 12.9182
upperback 26.2763 0.381623 5.17589
thorax 10.2413 -3.56959 -1.80197
lowerneck 1.31327 -0.752832 3.15349
upperneck 15.5783 -0.633675 -12.255
head 4.33105 -1.18429 -4.38587
rclavicle -7.55382e-014 -3.68746e-014
rhumerus -51.1058 -44.9452 -60.9177
rradius 22.4834
rwrist -27.3927
rhand -12.6588 -11.0566
rfingers 7.12502
rthumb 13.422 -40.6042
lclavicle -7.55382e-014 -3.68746e-014
lhumerus -32.4636 46.3609 64.7265
lradius 8.99703
lwrist -32.5659
lhand -24.8507 5.96125
lfingers 7.12502
lthumb 1.65575 755.935
rfemur -354.614 -69.3312 261.675
rtibia 145.805
rfoot -29.1934 48.7524
rtoes -13.2357
lfemur -64.8761 31.1589 9.84391
ltibia 143.628
lfoot -21.8714 -25.5903
ltoes -26.4026
232
root 1.6099 4.86592 9.80011 -2042 -18.048 183.964
lowerback 43.48 5.2419 12.9878
upperback 26.1971 0.402904 5.14598
thorax 10.1755 -3.52415 -1.86841
lowerneck 0.97584 -0.643092 2.53594
upperneck 15.7593 -0.456254 -12.4112
head 4.46163 -1.16793 -4.33417
rclavicle -3.45885e-014 -1.65985e-014
rhumerus -51.3233 -45.6348 -60.0115
rradius 22.0441
rwrist -26.4103
rhand -12.7845 -11.0853
rfingers 7.12502
rthumb 13.3009 -40.6409
lclavicle -3.45885e-014 -1.65985e-014
lhumerus -32.2086 45.9886 65.3054
lradius 8.72587
lwrist -32.5059
lhand -25.5446 6.10512
lfingers 7.12502
lthumb 0.985573 756.083
rfemur -363.102 -70.1366 271.829
rtibia 144.77
rfoot -25.9265 47.9431
rtoes -13.6977
lfemur -64.8444 30.5365 9.2978
ltibia 143.417
lfoot -21.3909 -25.2812
ltoes -25.8313
233
root 1.57502 4.89794 9.85786 -2041.94 -17.8706 184.054
lowerback 43.3855 5.20125 13.0529
upperback 26.1041 0.430219 5.11768
thorax 10.0927 -3.47641 -1.93132
lowerneck 0.651439 -0.540491 1.97568
upperneck 15.9624 -0.282669 -12.6089
head 4.59574 -1.15643 -4.30585
rclavicle -5.16343e-014 1.70955e-014
rhumerus -51.6266 -46.3834 -58.975
rradius 21.6128
rwrist -25.2541
rhand -12.8942 -11.0957
rfingers 7.12502
rthumb 13.1952 -40.6581
lclavicle -5.16343e-014 1.70955e-014
lhumerus -32.1074 45.6303 65.8008
lradius 8.55912
lwrist -32.3497
lhand -26.2084 6.19385
lfingers 7.12502
lthumb 0.344503 756.173
rfemur -373.475 -70.337 283.979
rtibia 143.663
rfoot -22.3187 46.8617
rtoes -14.1121
lfemur -64.8118 30.0152 8.78461
ltibia 143.188
lfoot -20.8976 -25.0238
ltoes -25.2013
234
root 1.53953 4.92708 9.91696 -2041.83 -17.6233 184.131
lowerback 43.2686 5.16542 13.1465
upperback 26.0075 0.469855 5.09884
thorax 10.0166 -3.41902 -2.00182
lowerneck 0.365065 -0.456388 1.46487
upperneck 16.1317 -0.132973 -12.8173
head 4.71103 -1.1534 -4.28876
rclavicle -6.31141e-015 4.05024e-014
rhumerus -51.8173 -46.9955 -58.0878
rradius 21.2171
rwrist -24.2782
rhand -13.0662 -11.0882
rfingers 7.12502
rthumb 13.0294 -40.6613
lclavicle -6.31141e-015 4.05024e-014
lhumerus -32.0536 45.2883 66.2873
lradius 8.46941
lwrist -32.1076
lhand -26.7453 6.35037
lfingers 7.12502
lthumb -0.174102 756.33
rfemur -384.531 -69.6968 296.846
rtibia 142.514
rfoot -18.5264 45.5572
rtoes -14.5114
lfemur -64.8766 29.6034 8.33209
ltibia 142.979
lfoot -20.3676 -24.8566
ltoes -24.4193
235
root 1.50365 4.95468 9.97639 -2041.69 -17.367 184.19
lowerback 43.1452 5.1262 13.2399
upperback 25.908 0.506108 5.06595
thorax 9.93854 -3.36066 -2.08661
lowerneck 0.0763914 -0.381802 1.03453
upperneck 16.3197 0.00695433 -13.0292
head 4.83138 -1.15291 -4.28738
rclavicle -5.75233e-014 -6.50274e-014
rhumerus -52.0658 -47.7003 -57.1053
rradius 20.7986
rwrist -23.233
rhand -13.2702 -11.0982
rfingers 7.12502
rthumb 12.8328 -40.6837
lclavicle -5.75233e-014 -6.50274e-014
lhumerus -32.0156 44.9595 66.7504
lradius 8.39171
lwrist -31.7093
lhand -27.2466 6.40706
lfingers 7.12502
lthumb -0.658304 756.386
rfemur -394.7 -68.2043 308.753
rtibia 141.327
rfoot -14.8383 44.0157
rtoes -14.9001
lfemur -64.9993 29.1973 7.84541
ltibia 142.779
lfoot -19.747 -24.7238
ltoes -23.4173
236
root 1.46697 4.97809 10.0332 -2041.55 -17.137 184.196
lowerback 43.041 5.1083 13.2609
upperback 25.8173 0.536215 5.03455
thorax 9.85709 -3.32029 -2.13313
lowerneck -0.115786 -0.297176 0.621067
upperneck 16.4369 0.154031 -13.25
head 4.91403 -1.14393 -4.28859
rclavicle -1.06226e-014 3.2054e-014
rhumerus -52.3173 -48.3549 -56.0905
rradius 20.391
rwrist -22.2038
rhand -13.4573 -11.0582
rfingers 7.12502
rthumb 12.6524 -40.655
lclavicle -1.06226e-014 3.2054e-014
lhumerus -31.9072 44.7207 67.2871
lradius 8.20138
lwrist -31.2452
lhand -27.956 6.50662
lfingers 7.12502
lthumb -1.34344 756.482
rfemur -403.187 -65.9656 318.783
rtibia 140.115
rfoot -11.29 42.3567
rtoes -15.3231
lfemur -65.0861 28.847 7.36464
ltibia 142.599
lfoot -19.084 -24.702
ltoes -22.2354
237
root 1.42979 4.99964 10.0884 -2041.44 -16.9621 184.182
lowerback 42.9708 5.08746 13.2541
upperback 25.7302 0.553488 4.98995
thorax 9.76672 -3.29127 -2.17631
lowerneck -0.305151 -0.233079 0.290395
upperneck 16.5673 0.275259 -13.4966
head 4.99782 -1.14579 -4.31359
rclavicle 6.6363e-014 -2.18912e-014
rhumerus -52.5968 -49.0223 -55.0635
rradius 20.0179
rwrist -21.1752
rhand -13.5813 -11.1025
rfingers 7.12502
rthumb 12.5328 -40.7066
lclavicle 6.6363e-014 -2.18912e-014
lhumerus -31.7969 44.473 67.8032
lradius 8.00796
lwrist -30.6691
lhand -28.596 6.53435
lfingers 7.12502
lthumb -1.96149 756.505
rfemur -409.557 -63.3488 326.514
rtibia 138.873
rfoot -8.06945 40.6306
rtoes -15.8791
lfemur -65.161 28.4181 6.79475
ltibia 142.438
lfoot -18.488 -24.5695
ltoes -21.2979
238
root 1.39211 5.02047 10.1415 -2041.31 -16.7728 184.142
lowerback 42.8824 5.09099 13.2349
upperback 25.6655 0.581798 4.95909
thorax 9.70853 -3.26246 -2.20429
lowerneck -0.490659 -0.16755 -0.0362042
upperneck 16.7045 0.395982 -13.6849
head 5.08355 -1.1442 -4.32072
rclavicle -6.90342e-014 -1.52567e-014
rhumerus -52.923 -49.7641 -53.9149
rradius 19.6112
rwrist -20.0214
rhand -13.6002 -11.1305
rfingers 7.12502
rthumb 12.5145 -40.7358
lclavicle -6.90342e-014 -1.52567e-014
lhumerus -31.6221 44.2537 68.3937
lradius 7.79874
lwrist -30.1391
lhand -29.2424 6.60373
lfingers 7.12502
lthumb -2.5858 756.568
rfemur -414.369 -60.5554 332.571
rtibia 137.616
rfoot -5.05395 38.8503
rtoes -16.2261
lfemur -65.2158 28.0395 6.25615
ltibia 142.279
lfoot -17.9194 -24.4539
ltoes -20.3117
239
root 1.35598 5.03895 10.1933 -2041.2 -16.5771 184.122
lowerback 42.8238 5.06531 13.236
upperback 25.5848 0.589119 4.89551
thorax 9.62403 -3.2383 -2.26994
lowerneck -0.652168 -0.0904709 -0.246838
upperneck 16.813 0.531499 -13.9038
head 5.15658 -1.12767 -4.35581
rclavicle -1.08251e-013 2.3233e-015
rhumerus -53.3596 -50.5467 -52.6872
rradius 19.1949
rwrist -18.7189
rhand -13.5833 -11.151
rfingers 7.12502
rthumb 12.5309 -40.7553
lclavicle -1.08251e-013 2.3233e-015
lhumerus -31.5492 44.0233 68.8414
lradius 7.64567
lwrist -29.6256
lhand -29.7819 6.68963
lfingers 7.12502
lthumb -3.10687 756.647
rfemur -417.943 -57.7875 337.305
rtibia 136.369
rfoot -2.26403 37.0101
rtoes -16.417
lfemur -65.2922 27.7142 5.76411
ltibia 142.134
lfoot -17.4193 -24.3196
ltoes -19.5619
240
root 1.32007 5.05626 10.2445 -2041.12 -16.3648 184.111
lowerback 42.7924 5.04871 13.2569
upperback 25.5059 0.611404 4.85516
thorax 9.53864 -3.21043 -2.32354
lowerneck -0.809584 -0.0231355 -0.433548
upperneck 16.9543 0.652545 -14.0847
head 5.23819 -1.11616 -4.38425
rclavicle 2.95444e-014 5.0746e-014
rhumerus -53.7968 -51.2721 -51.5005
rradius 18.8236
rwrist -17.4573
rhand -13.5355 -11.2414
rfingers 7.12502
rthumb 12.5769 -40.8429
lclavicle 2.95444e-014 5.0746e-014
lhumerus -31.4799 43.7583 69.2923
lradius 7.51596
lwrist -29.1574
lhand -30.1873 6.8377
lfingers 7.12502
lthumb -3.4983 756.789
rfemur -420.695 -54.9342 341.23
rtibia 135.059
rfoot 0.553837 34.9637
rtoes -16.0771
lfemur -65.3311 27.3885 5.33334
ltibia 141.985
lfoot -16.9448 -24.1689
ltoes -18.7911
